%TF.GenerationSoftware,KiCad,Pcbnew,10.0.1*%
%TF.CreationDate,2026-08-16T17:45:17-07:00*%
%TF.ProjectId,Daisy_MultiEffect_Pedal,44616973-795f-44d7-956c-746945666665,rev?*%
%TF.SameCoordinates,Original*%
%TF.FileFunction,Soldermask,Bot*%
%TF.FilePolarity,Negative*%
%FSLAX46Y46*%
G04 Gerber Fmt 4.6, Leading zero omitted, Abs format (unit mm)*
G04 Created by KiCad (PCBNEW 10.0.1) date 2026-08-16 17:45:17*
%MOMM*%
%LPD*%
G01*
G04 APERTURE LIST*
G04 Aperture macros list*
%AMRoundRect*
0 Rectangle with rounded corners*
0 $1 Rounding radius*
0 $2 $3 $4 $5 $6 $7 $8 $9 X,Y pos of 4 corners*
0 Add a 4 corners polygon primitive as box body*
4,1,4,$2,$3,$4,$5,$6,$7,$8,$9,$2,$3,0*
0 Add four circle primitives for the rounded corners*
1,1,$1+$1,$2,$3*
1,1,$1+$1,$4,$5*
1,1,$1+$1,$6,$7*
1,1,$1+$1,$8,$9*
0 Add four rect primitives between the rounded corners*
20,1,$1+$1,$2,$3,$4,$5,0*
20,1,$1+$1,$4,$5,$6,$7,0*
20,1,$1+$1,$6,$7,$8,$9,0*
20,1,$1+$1,$8,$9,$2,$3,0*%
G04 Aperture macros list end*
%ADD10C,1.700000*%
%ADD11C,1.900000*%
%ADD12RoundRect,0.050000X-0.900000X-0.900000X0.900000X-0.900000X0.900000X0.900000X-0.900000X0.900000X0*%
%ADD13RoundRect,0.050000X-1.200000X-1.200000X1.200000X-1.200000X1.200000X1.200000X-1.200000X1.200000X0*%
%ADD14C,2.500000*%
%ADD15RoundRect,0.050000X-0.800000X-0.800000X0.800000X-0.800000X0.800000X0.800000X-0.800000X0.800000X0*%
%ADD16RoundRect,0.050000X-0.825000X-0.825000X0.825000X-0.825000X0.825000X0.825000X-0.825000X0.825000X0*%
%ADD17C,1.750000*%
G04 APERTURE END LIST*
D10*
%TO.C,C2*%
X66190000Y-29000000D03*
X73810000Y-29000000D03*
%TD*%
D11*
%TO.C,RV5*%
X102460000Y-86000000D03*
D12*
X105000000Y-86000000D03*
D11*
X107540000Y-86000000D03*
%TD*%
D10*
%TO.C,R7*%
X114190000Y-78000000D03*
X121810000Y-78000000D03*
%TD*%
D13*
%TO.C,J2*%
X137460000Y-86000000D03*
D14*
X142540000Y-86000000D03*
%TD*%
D11*
%TO.C,RV3*%
X58460000Y-15000000D03*
D12*
X61000000Y-15000000D03*
D11*
X63540000Y-15000000D03*
%TD*%
D10*
%TO.C,C3*%
X66190000Y-35000000D03*
X73810000Y-35000000D03*
%TD*%
%TO.C,C1*%
X66190000Y-24000000D03*
X73810000Y-24000000D03*
%TD*%
%TO.C,C7*%
X97190000Y-73000000D03*
X104810000Y-73000000D03*
%TD*%
D15*
%TO.C,U1*%
X62190000Y-44190000D03*
D10*
X62190000Y-46730000D03*
X62190000Y-49270000D03*
X62190000Y-51810000D03*
X69810000Y-51810000D03*
X69810000Y-49270000D03*
X69810000Y-46730000D03*
X69810000Y-44190000D03*
%TD*%
D11*
%TO.C,RV1*%
X22460000Y-15000000D03*
D12*
X25000000Y-15000000D03*
D11*
X27540000Y-15000000D03*
%TD*%
D13*
%TO.C,SW1*%
X103460000Y-34000000D03*
D14*
X108540000Y-34000000D03*
%TD*%
D10*
%TO.C,R6*%
X80190000Y-73000000D03*
X87810000Y-73000000D03*
%TD*%
%TO.C,C4*%
X30190000Y-38000000D03*
X37810000Y-38000000D03*
%TD*%
D16*
%TO.C,U2*%
X118000000Y-24000000D03*
D17*
X118000000Y-26540000D03*
X118000000Y-29080000D03*
X118000000Y-31620000D03*
X118000000Y-34160000D03*
X118000000Y-36700000D03*
X118000000Y-39240000D03*
X118000000Y-41780000D03*
X118000000Y-44320000D03*
X118000000Y-46860000D03*
X118000000Y-49400000D03*
X118000000Y-51940000D03*
X118000000Y-54480000D03*
X118000000Y-57020000D03*
X118000000Y-59560000D03*
X118000000Y-62100000D03*
X118000000Y-64640000D03*
X118000000Y-67180000D03*
X118000000Y-69720000D03*
X118000000Y-72260000D03*
X135780000Y-24000000D03*
X135780000Y-26540000D03*
X135780000Y-29080000D03*
X135780000Y-31620000D03*
X135780000Y-34160000D03*
X135780000Y-36700000D03*
X135780000Y-39240000D03*
X135780000Y-41780000D03*
X135780000Y-44320000D03*
X135780000Y-46860000D03*
X135780000Y-49400000D03*
X135780000Y-51940000D03*
X135780000Y-54480000D03*
X135780000Y-57020000D03*
X135780000Y-59560000D03*
X135780000Y-62100000D03*
X135780000Y-64640000D03*
X135780000Y-67180000D03*
X135780000Y-69720000D03*
X135780000Y-72260000D03*
%TD*%
D10*
%TO.C,R5*%
X82190000Y-64000000D03*
X89810000Y-64000000D03*
%TD*%
%TO.C,R1*%
X51190000Y-24000000D03*
X58810000Y-24000000D03*
%TD*%
%TO.C,C6*%
X94190000Y-64000000D03*
X101810000Y-64000000D03*
%TD*%
D11*
%TO.C,RV2*%
X40460000Y-15000000D03*
D12*
X43000000Y-15000000D03*
D11*
X45540000Y-15000000D03*
%TD*%
D10*
%TO.C,R2*%
X51190000Y-29000000D03*
X58810000Y-29000000D03*
%TD*%
%TO.C,C5*%
X92190000Y-40000000D03*
X99810000Y-40000000D03*
%TD*%
D11*
%TO.C,RV4*%
X76460000Y-15000000D03*
D12*
X79000000Y-15000000D03*
D11*
X81540000Y-15000000D03*
%TD*%
D13*
%TO.C,J1*%
X12460000Y-38000000D03*
D14*
X17540000Y-38000000D03*
%TD*%
D10*
%TO.C,R4*%
X78190000Y-40000000D03*
X85810000Y-40000000D03*
%TD*%
%TO.C,R3*%
X45190000Y-43000000D03*
X52810000Y-43000000D03*
%TD*%
M02*
