M48
; DRILL file KiCad 10.0.1 date 2026-08-16T17:45:17
; FORMAT={-:-/ absolute / metric / decimal}
; #@! TF.CreationDate,2026-08-16T17:45:17-07:00
; #@! TF.GenerationSoftware,Kicad,Pcbnew,10.0.1
; #@! TF.FileFunction,MixedPlating,1,2
FMAT,2
METRIC
; #@! TA.AperFunction,Plated,PTH,ComponentDrill
T1C0.800
; #@! TA.AperFunction,Plated,PTH,ComponentDrill
T2C0.900
; #@! TA.AperFunction,Plated,PTH,ComponentDrill
T3C1.200
%
G90
G05
T1
X30.19Y-38.0
X37.81Y-38.0
X45.19Y-43.0
X51.19Y-24.0
X51.19Y-29.0
X52.81Y-43.0
X58.81Y-24.0
X58.81Y-29.0
X62.19Y-44.19
X62.19Y-46.73
X62.19Y-49.27
X62.19Y-51.81
X66.19Y-24.0
X66.19Y-29.0
X66.19Y-35.0
X69.81Y-44.19
X69.81Y-46.73
X69.81Y-49.27
X69.81Y-51.81
X73.81Y-24.0
X73.81Y-29.0
X73.81Y-35.0
X78.19Y-40.0
X80.19Y-73.0
X82.19Y-64.0
X85.81Y-40.0
X87.81Y-73.0
X89.81Y-64.0
X92.19Y-40.0
X94.19Y-64.0
X97.19Y-73.0
X99.81Y-40.0
X101.81Y-64.0
X104.81Y-73.0
X114.19Y-78.0
X121.81Y-78.0
T2
X22.46Y-15.0
X25.0Y-15.0
X27.54Y-15.0
X40.46Y-15.0
X43.0Y-15.0
X45.54Y-15.0
X58.46Y-15.0
X61.0Y-15.0
X63.54Y-15.0
X76.46Y-15.0
X79.0Y-15.0
X81.54Y-15.0
X102.46Y-86.0
X105.0Y-86.0
X107.54Y-86.0
X118.0Y-24.0
X118.0Y-26.54
X118.0Y-29.08
X118.0Y-31.62
X118.0Y-34.16
X118.0Y-36.7
X118.0Y-39.24
X118.0Y-41.78
X118.0Y-44.32
X118.0Y-46.86
X118.0Y-49.4
X118.0Y-51.94
X118.0Y-54.48
X118.0Y-57.02
X118.0Y-59.56
X118.0Y-62.1
X118.0Y-64.64
X118.0Y-67.18
X118.0Y-69.72
X118.0Y-72.26
X135.78Y-24.0
X135.78Y-26.54
X135.78Y-29.08
X135.78Y-31.62
X135.78Y-34.16
X135.78Y-36.7
X135.78Y-39.24
X135.78Y-41.78
X135.78Y-44.32
X135.78Y-46.86
X135.78Y-49.4
X135.78Y-51.94
X135.78Y-54.48
X135.78Y-57.02
X135.78Y-59.56
X135.78Y-62.1
X135.78Y-64.64
X135.78Y-67.18
X135.78Y-69.72
X135.78Y-72.26
T3
X12.46Y-38.0
X17.54Y-38.0
X103.46Y-34.0
X108.54Y-34.0
X137.46Y-86.0
X142.54Y-86.0
M30
