%TF.GenerationSoftware,KiCad,Pcbnew,10.0.1*%
%TF.CreationDate,2026-08-16T17:45:17-07:00*%
%TF.ProjectId,Daisy_MultiEffect_Pedal,44616973-795f-44d7-956c-746945666665,rev?*%
%TF.SameCoordinates,Original*%
%TF.FileFunction,Copper,L1,Top*%
%TF.FilePolarity,Positive*%
%FSLAX46Y46*%
G04 Gerber Fmt 4.6, Leading zero omitted, Abs format (unit mm)*
G04 Created by KiCad (PCBNEW 10.0.1) date 2026-08-16 17:45:17*
%MOMM*%
%LPD*%
G01*
G04 APERTURE LIST*
%TA.AperFunction,ComponentPad*%
%ADD10C,1.600000*%
%TD*%
%TA.AperFunction,ComponentPad*%
%ADD11C,1.800000*%
%TD*%
%TA.AperFunction,ComponentPad*%
%ADD12R,1.800000X1.800000*%
%TD*%
%TA.AperFunction,ComponentPad*%
%ADD13R,2.400000X2.400000*%
%TD*%
%TA.AperFunction,ComponentPad*%
%ADD14C,2.400000*%
%TD*%
%TA.AperFunction,ComponentPad*%
%ADD15R,1.600000X1.600000*%
%TD*%
%TA.AperFunction,ComponentPad*%
%ADD16R,1.650000X1.650000*%
%TD*%
%TA.AperFunction,ComponentPad*%
%ADD17C,1.650000*%
%TD*%
%TA.AperFunction,Conductor*%
%ADD18C,0.350000*%
%TD*%
%TA.AperFunction,Conductor*%
%ADD19C,0.500000*%
%TD*%
%TA.AperFunction,Conductor*%
%ADD20C,0.450000*%
%TD*%
%TA.AperFunction,Conductor*%
%ADD21C,0.300000*%
%TD*%
G04 APERTURE END LIST*
D10*
%TO.P,C2,1,1*%
%TO.N,VREF_1V65*%
X66190000Y-29000000D03*
%TO.P,C2,2,2*%
%TO.N,GND*%
X73810000Y-29000000D03*
%TD*%
D11*
%TO.P,RV5,1,CCW/GND*%
%TO.N,GND*%
X102460000Y-86000000D03*
D12*
%TO.P,RV5,2,WIPER*%
%TO.N,OUT_JACK_TIP*%
X105000000Y-86000000D03*
D11*
%TO.P,RV5,3,CW/LEVEL_IN*%
%TO.N,OUT_LEVEL_IN*%
X107540000Y-86000000D03*
%TD*%
D10*
%TO.P,R7,1,1*%
%TO.N,OUT_JACK_TIP*%
X114190000Y-78000000D03*
%TO.P,R7,2,2*%
%TO.N,GND*%
X121810000Y-78000000D03*
%TD*%
D13*
%TO.P,J2,1,TIP/SW1*%
%TO.N,OUT_JACK_TIP*%
X137460000Y-86000000D03*
D14*
%TO.P,J2,2,SLEEVE/SW2*%
%TO.N,GND*%
X142540000Y-86000000D03*
%TD*%
D11*
%TO.P,RV3,1,CCW/GND*%
%TO.N,GND*%
X58460000Y-15000000D03*
D12*
%TO.P,RV3,2,WIPER*%
%TO.N,POT3_A2_D17*%
X61000000Y-15000000D03*
D11*
%TO.P,RV3,3,CW/3V3A*%
%TO.N,+3V3A*%
X63540000Y-15000000D03*
%TD*%
D10*
%TO.P,C3,1,1*%
%TO.N,+3V3A*%
X66190000Y-35000000D03*
%TO.P,C3,2,2*%
%TO.N,GND*%
X73810000Y-35000000D03*
%TD*%
%TO.P,C1,1,1*%
%TO.N,VREF_1V65*%
X66190000Y-24000000D03*
%TO.P,C1,2,2*%
%TO.N,GND*%
X73810000Y-24000000D03*
%TD*%
%TO.P,C7,1,1*%
%TO.N,OUT_CAP_IN*%
X97190000Y-73000000D03*
%TO.P,C7,2,2*%
%TO.N,OUT_LEVEL_IN*%
X104810000Y-73000000D03*
%TD*%
D15*
%TO.P,U1,1,P1*%
%TO.N,BUF_IN_OUT*%
X62190000Y-44190000D03*
D10*
%TO.P,U1,2,P2*%
X62190000Y-46730000D03*
%TO.P,U1,3,P3*%
%TO.N,INPUT_NODE*%
X62190000Y-49270000D03*
%TO.P,U1,4,P4*%
%TO.N,GND*%
X62190000Y-51810000D03*
%TO.P,U1,5,P5*%
%TO.N,OUT_BUF_INPUT*%
X69810000Y-51810000D03*
%TO.P,U1,6,P6*%
%TO.N,OUT_BUF_OUT*%
X69810000Y-49270000D03*
%TO.P,U1,7,P7*%
X69810000Y-46730000D03*
%TO.P,U1,8,P8*%
%TO.N,+3V3A*%
X69810000Y-44190000D03*
%TD*%
D11*
%TO.P,RV1,1,CCW/GND*%
%TO.N,GND*%
X22460000Y-15000000D03*
D12*
%TO.P,RV1,2,WIPER*%
%TO.N,POT1_A0_D15*%
X25000000Y-15000000D03*
D11*
%TO.P,RV1,3,CW/3V3A*%
%TO.N,+3V3A*%
X27540000Y-15000000D03*
%TD*%
D13*
%TO.P,SW1,1,TIP/SW1*%
%TO.N,D9_SWITCH*%
X103460000Y-34000000D03*
D14*
%TO.P,SW1,2,SLEEVE/SW2*%
%TO.N,GND*%
X108540000Y-34000000D03*
%TD*%
D10*
%TO.P,R6,1,1*%
%TO.N,OUT_BUF_OUT*%
X80190000Y-73000000D03*
%TO.P,R6,2,2*%
%TO.N,OUT_CAP_IN*%
X87810000Y-73000000D03*
%TD*%
%TO.P,C4,1,1*%
%TO.N,IN_JACK_TIP*%
X30190000Y-38000000D03*
%TO.P,C4,2,2*%
%TO.N,INPUT_NODE*%
X37810000Y-38000000D03*
%TD*%
D16*
%TO.P,U2,1,PIN1*%
%TO.N,N/C*%
X118000000Y-24000000D03*
D17*
%TO.P,U2,2,PIN2*%
X118000000Y-26540000D03*
%TO.P,U2,3,PIN3*%
X118000000Y-29080000D03*
%TO.P,U2,4,PIN4*%
X118000000Y-31620000D03*
%TO.P,U2,5,PIN5*%
X118000000Y-34160000D03*
%TO.P,U2,6,PIN6*%
X118000000Y-36700000D03*
%TO.P,U2,7,PIN7*%
X118000000Y-39240000D03*
%TO.P,U2,8,PIN8*%
X118000000Y-41780000D03*
%TO.P,U2,9,PIN9*%
X118000000Y-44320000D03*
%TO.P,U2,10,PIN10*%
%TO.N,D9_SWITCH*%
X118000000Y-46860000D03*
%TO.P,U2,11,PIN11*%
%TO.N,N/C*%
X118000000Y-49400000D03*
%TO.P,U2,12,PIN12*%
X118000000Y-51940000D03*
%TO.P,U2,13,PIN13*%
X118000000Y-54480000D03*
%TO.P,U2,14,PIN14*%
X118000000Y-57020000D03*
%TO.P,U2,15,PIN15*%
X118000000Y-59560000D03*
%TO.P,U2,16,PIN16*%
%TO.N,AUDIO_IN_L*%
X118000000Y-62100000D03*
%TO.P,U2,17,PIN17*%
%TO.N,N/C*%
X118000000Y-64640000D03*
%TO.P,U2,18,PIN18*%
%TO.N,AUDIO_OUT_L*%
X118000000Y-67180000D03*
%TO.P,U2,19,PIN19*%
%TO.N,AUDIO_OUT_R_UNUSED*%
X118000000Y-69720000D03*
%TO.P,U2,20,PIN20*%
%TO.N,GND*%
X118000000Y-72260000D03*
%TO.P,U2,21,PIN21*%
%TO.N,+3V3A*%
X135780000Y-24000000D03*
%TO.P,U2,22,PIN22*%
%TO.N,POT1_A0_D15*%
X135780000Y-26540000D03*
%TO.P,U2,23,PIN23*%
%TO.N,POT2_A1_D16*%
X135780000Y-29080000D03*
%TO.P,U2,24,PIN24*%
%TO.N,POT3_A2_D17*%
X135780000Y-31620000D03*
%TO.P,U2,25,PIN25*%
%TO.N,POT4_A3_D18*%
X135780000Y-34160000D03*
%TO.P,U2,26,PIN26*%
%TO.N,N/C*%
X135780000Y-36700000D03*
%TO.P,U2,27,PIN27*%
X135780000Y-39240000D03*
%TO.P,U2,28,PIN28*%
X135780000Y-41780000D03*
%TO.P,U2,29,PIN29*%
X135780000Y-44320000D03*
%TO.P,U2,30,PIN30*%
X135780000Y-46860000D03*
%TO.P,U2,31,PIN31*%
X135780000Y-49400000D03*
%TO.P,U2,32,PIN32*%
X135780000Y-51940000D03*
%TO.P,U2,33,PIN33*%
X135780000Y-54480000D03*
%TO.P,U2,34,PIN34*%
X135780000Y-57020000D03*
%TO.P,U2,35,PIN35*%
X135780000Y-59560000D03*
%TO.P,U2,36,PIN36*%
X135780000Y-62100000D03*
%TO.P,U2,37,PIN37*%
X135780000Y-64640000D03*
%TO.P,U2,38,PIN38*%
X135780000Y-67180000D03*
%TO.P,U2,39,PIN39*%
X135780000Y-69720000D03*
%TO.P,U2,40,PIN40*%
%TO.N,GND*%
X135780000Y-72260000D03*
%TD*%
D10*
%TO.P,R5,1,1*%
%TO.N,OUT_BUF_INPUT*%
X82190000Y-64000000D03*
%TO.P,R5,2,2*%
%TO.N,VREF_1V65*%
X89810000Y-64000000D03*
%TD*%
%TO.P,R1,1,1*%
%TO.N,+3V3A*%
X51190000Y-24000000D03*
%TO.P,R1,2,2*%
%TO.N,VREF_1V65*%
X58810000Y-24000000D03*
%TD*%
%TO.P,C6,1,1*%
%TO.N,AUDIO_OUT_L*%
X94190000Y-64000000D03*
%TO.P,C6,2,2*%
%TO.N,OUT_BUF_INPUT*%
X101810000Y-64000000D03*
%TD*%
D11*
%TO.P,RV2,1,CCW/GND*%
%TO.N,GND*%
X40460000Y-15000000D03*
D12*
%TO.P,RV2,2,WIPER*%
%TO.N,POT2_A1_D16*%
X43000000Y-15000000D03*
D11*
%TO.P,RV2,3,CW/3V3A*%
%TO.N,+3V3A*%
X45540000Y-15000000D03*
%TD*%
D10*
%TO.P,R2,1,1*%
%TO.N,VREF_1V65*%
X51190000Y-29000000D03*
%TO.P,R2,2,2*%
%TO.N,GND*%
X58810000Y-29000000D03*
%TD*%
%TO.P,C5,1,1*%
%TO.N,BUF_TO_DAISY_C*%
X92190000Y-40000000D03*
%TO.P,C5,2,2*%
%TO.N,AUDIO_IN_L*%
X99810000Y-40000000D03*
%TD*%
D11*
%TO.P,RV4,1,CCW/GND*%
%TO.N,GND*%
X76460000Y-15000000D03*
D12*
%TO.P,RV4,2,WIPER*%
%TO.N,POT4_A3_D18*%
X79000000Y-15000000D03*
D11*
%TO.P,RV4,3,CW/3V3A*%
%TO.N,+3V3A*%
X81540000Y-15000000D03*
%TD*%
D13*
%TO.P,J1,1,TIP/SW1*%
%TO.N,IN_JACK_TIP*%
X12460000Y-38000000D03*
D14*
%TO.P,J1,2,SLEEVE/SW2*%
%TO.N,GND*%
X17540000Y-38000000D03*
%TD*%
D10*
%TO.P,R4,1,1*%
%TO.N,BUF_IN_OUT*%
X78190000Y-40000000D03*
%TO.P,R4,2,2*%
%TO.N,BUF_TO_DAISY_C*%
X85810000Y-40000000D03*
%TD*%
%TO.P,R3,1,1*%
%TO.N,INPUT_NODE*%
X45190000Y-43000000D03*
%TO.P,R3,2,2*%
%TO.N,VREF_1V65*%
X52810000Y-43000000D03*
%TD*%
%TO.N,VREF_1V65*%
D18*
X51190000Y-29000000D02*
X51190000Y-43000000D01*
X52810000Y-43000000D02*
X52810000Y-38000000D01*
X58810000Y-24000000D02*
X66190000Y-24000000D01*
X51190000Y-43000000D02*
X52810000Y-43000000D01*
X66190000Y-29000000D02*
X66190000Y-31500000D01*
X66190000Y-31500000D02*
X51190000Y-31500000D01*
X51190000Y-31500000D02*
X51190000Y-29000000D01*
X89810000Y-38000000D02*
X89810000Y-64000000D01*
X52810000Y-38000000D02*
X89810000Y-38000000D01*
X66190000Y-24000000D02*
X66190000Y-29000000D01*
%TO.N,GND*%
D19*
X108540000Y-34000000D02*
X108540000Y-37000000D01*
X108540000Y-37000000D02*
X73810000Y-37000000D01*
X73810000Y-37000000D02*
X73810000Y-35000000D01*
%TO.N,OUT_JACK_TIP*%
D20*
X105000000Y-86000000D02*
X105000000Y-88500000D01*
D18*
X114190000Y-78000000D02*
X114190000Y-88500000D01*
D20*
X105000000Y-88500000D02*
X137460000Y-88500000D01*
X137460000Y-88500000D02*
X137460000Y-86000000D01*
%TO.N,OUT_LEVEL_IN*%
D18*
X104810000Y-73000000D02*
X107540000Y-73000000D01*
X107540000Y-73000000D02*
X107540000Y-86000000D01*
%TO.N,POT3_A2_D17*%
D21*
X129000000Y-31620000D02*
X135780000Y-31620000D01*
X61000000Y-15000000D02*
X61000000Y-12000000D01*
X61000000Y-12000000D02*
X129000000Y-12000000D01*
X129000000Y-12000000D02*
X129000000Y-31620000D01*
%TO.N,OUT_CAP_IN*%
D18*
X87810000Y-73000000D02*
X97190000Y-73000000D01*
%TO.N,BUF_IN_OUT*%
X62190000Y-44190000D02*
X62190000Y-42000000D01*
X62190000Y-42000000D02*
X78190000Y-42000000D01*
X62190000Y-44190000D02*
X62190000Y-46730000D01*
X78190000Y-42000000D02*
X78190000Y-40000000D01*
%TO.N,INPUT_NODE*%
X37810000Y-38000000D02*
X37810000Y-49270000D01*
X37810000Y-49270000D02*
X62190000Y-49270000D01*
X37810000Y-43000000D02*
X45190000Y-43000000D01*
%TO.N,OUT_BUF_INPUT*%
X82190000Y-64000000D02*
X82190000Y-68000000D01*
X82190000Y-68000000D02*
X101810000Y-68000000D01*
X101810000Y-68000000D02*
X101810000Y-64000000D01*
X66000000Y-51810000D02*
X66000000Y-64000000D01*
X69810000Y-51810000D02*
X66000000Y-51810000D01*
X66000000Y-64000000D02*
X66000000Y-76000000D01*
X66000000Y-76000000D02*
X82190000Y-76000000D01*
X82190000Y-76000000D02*
X82190000Y-64000000D01*
%TO.N,OUT_BUF_OUT*%
X76000000Y-73000000D02*
X80190000Y-73000000D01*
X69810000Y-46730000D02*
X69810000Y-49270000D01*
X69810000Y-46730000D02*
X76000000Y-46730000D01*
X76000000Y-46730000D02*
X76000000Y-73000000D01*
%TO.N,POT1_A0_D15*%
D21*
X133000000Y-26540000D02*
X135780000Y-26540000D01*
X133000000Y-8000000D02*
X133000000Y-26540000D01*
X25000000Y-15000000D02*
X25000000Y-8000000D01*
X25000000Y-8000000D02*
X133000000Y-8000000D01*
%TO.N,D9_SWITCH*%
D18*
X103460000Y-34000000D02*
X103460000Y-31000000D01*
X103460000Y-31000000D02*
X112000000Y-31000000D01*
X112000000Y-31000000D02*
X112000000Y-46860000D01*
X112000000Y-46860000D02*
X118000000Y-46860000D01*
%TO.N,IN_JACK_TIP*%
D20*
X12460000Y-38000000D02*
X12460000Y-35000000D01*
X12460000Y-35000000D02*
X30190000Y-35000000D01*
X30190000Y-35000000D02*
X30190000Y-38000000D01*
%TO.N,AUDIO_IN_L*%
D18*
X104000000Y-40000000D02*
X104000000Y-62100000D01*
X104000000Y-62100000D02*
X118000000Y-62100000D01*
X99810000Y-40000000D02*
X104000000Y-40000000D01*
%TO.N,POT2_A1_D16*%
D21*
X43000000Y-10000000D02*
X131000000Y-10000000D01*
X131000000Y-10000000D02*
X131000000Y-29080000D01*
X43000000Y-15000000D02*
X43000000Y-10000000D01*
X131000000Y-29080000D02*
X135780000Y-29080000D01*
%TO.N,POT4_A3_D18*%
X79000000Y-17000000D02*
X127000000Y-17000000D01*
X127000000Y-34160000D02*
X135780000Y-34160000D01*
X127000000Y-17000000D02*
X127000000Y-34160000D01*
X79000000Y-15000000D02*
X79000000Y-17000000D01*
%TD*%
M02*
